<?xml version="1.0" encoding="UTF-8" standalone="no"?>
<!-- Created with Inkscape (http://www.inkscape.org/) -->

<svg
   width="480"
   height="480"
   viewBox="0 0 126.99996 126.99996"
   version="1.1"
   id="svg1"
   inkscape:export-filename="leaf.png"
   inkscape:export-xdpi="96"
   inkscape:export-ydpi="96"
   inkscape:version="1.3 (0e150ed6c4, 2023-07-21)"
   sodipodi:docname="leaf.svg"
   xmlns:inkscape="http://www.inkscape.org/namespaces/inkscape"
   xmlns:sodipodi="http://sodipodi.sourceforge.net/DTD/sodipodi-0.dtd"
   xmlns="http://www.w3.org/2000/svg"
   xmlns:svg="http://www.w3.org/2000/svg">
  <sodipodi:namedview
     id="namedview1"
     pagecolor="#505050"
     bordercolor="#eeeeee"
     borderopacity="1"
     inkscape:showpageshadow="0"
     inkscape:pageopacity="0"
     inkscape:pagecheckerboard="0"
     inkscape:deskcolor="#505050"
     inkscape:document-units="mm"
     inkscape:zoom="0.63748732"
     inkscape:cx="54.903053"
     inkscape:cy="205.49428"
     inkscape:window-width="1366"
     inkscape:window-height="703"
     inkscape:window-x="0"
     inkscape:window-y="0"
     inkscape:window-maximized="1"
     inkscape:current-layer="layer1" />
  <defs
     id="defs1" />
  <g
     inkscape:label="Capa 1"
     inkscape:groupmode="layer"
     id="layer1">
    <g
       id="g6">
      <rect
         style="fill:#43be24;fill-opacity:1;stroke:none;stroke-width:0.850722"
         id="rect4"
         width="127.63852"
         height="127.63852"
         x="-159.07402"
         y="1.5632819"
         ry="20.896015" />
      <g
         id="g5"
         transform="matrix(1.2760798,-0.24642241,0.24642241,1.2760798,-221.51379,43.792247)">
        <path
           style="fill:#eaeaea;fill-opacity:1;stroke:none;stroke-width:0.926042"
           d="m 142.6956,-4.3835404 c 0,0 -36.81365,-7.2934426 -51.686962,12.2677548 C 76.135324,27.445411 65.086703,40.369291 65.086703,40.369291 c 0,0 75.434317,22.240684 81.959947,-8.554135 6.52563,-30.7948202 -4.35105,-36.1986964 -4.35105,-36.1986964 z"
           id="path4" />
        <path
           style="fill:#eaeaea;fill-opacity:1;stroke:none;stroke-width:0.926042"
           d="M 145.79813,-13.787764 C 138.1294,0.64115076 142.24288,2.3951912 142.24288,2.3951912 l 12.02834,-14.9300662 z"
           id="path5" />
      </g>
    </g>
    <rect
       style="fill:#43be24;fill-opacity:1;stroke:none;stroke-width:0.771226"
       id="rect6"
       width="115.71136"
       height="115.71136"
       x="3.1825745"
       y="10.985027"
       ry="13.76161" />
    <g
       id="g7"
       transform="matrix(1.1568367,-0.22339551,0.22339551,1.1568367,-53.422522,49.267914)">
      <path
         style="fill:#eaeaea;fill-opacity:1;stroke:none;stroke-width:0.926042"
         d="m 142.6956,-4.3835404 c 0,0 -36.81365,-7.2934426 -51.686962,12.2677548 C 76.135324,27.445411 65.086703,40.369291 65.086703,40.369291 c 0,0 75.434317,22.240684 81.959947,-8.554135 6.52563,-30.7948202 -4.35105,-36.1986964 -4.35105,-36.1986964 z"
         id="path6" />
      <path
         style="fill:#eaeaea;fill-opacity:1;stroke:none;stroke-width:0.926042"
         d="M 145.79813,-13.787764 C 138.1294,0.64115076 142.24288,2.3951912 142.24288,2.3951912 l 12.02834,-14.9300662 z"
         id="path7" />
    </g>
  </g>
</svg>
